Coordinates
datacolumns 6
datarows 89
range 133.85 134.73
inDegrees=yes
Units are S.I. units (second, meters, Newtons, ...)
If the header above contains a line with 'inDegrees', this indicates whether rotational values are in degrees (yes) or radians (no).
endheader
time	foot_tx	hip_flexion_r	knee_angle_r	ankle_angle_r	lumbar
133.85	0.22482852	64.52415094	-79.66531597	-1.60410578	-28.30959066
133.86	0.22481804	64.58632293	-79.6327315	-1.63198201	-28.37799256
133.87	0.22480187	64.59802661	-79.59792382	-1.65587444	-28.51950404
133.88	0.22479017	64.64415337	-79.56348699	-1.68314311	-28.64220225
133.89	0.22477902	64.73121603	-79.53057916	-1.71352701	-28.73966643
133.9	0.22475655	64.74014771	-79.49776671	-1.73547847	-28.94291756
133.91	0.22473379	64.78389083	-79.46678921	-1.75922235	-29.12829121
133.92	0.22471095	64.82791913	-79.43630032	-1.78215198	-29.33481602
133.93	0.22468346	64.8728261	-79.40635028	-1.80435573	-29.56374715
133.94	0.22465043	64.92318492	-79.37680564	-1.8266987	-29.81220087
133.95	0.22461695	64.98571124	-79.34760149	-1.8503882	-30.07459582
133.96	0.22458171	65.06003017	-79.31898701	-1.87520583	-30.352525
133.97	0.22454494	65.14375853	-79.2908471	-1.90068205	-30.6490174
133.98	0.22450494	65.22901297	-79.26273138	-1.92555952	-30.97234483
133.99	0.22446334	65.31028679	-79.23379785	-1.94913833	-31.32789833
134	0.22442079	65.3835276	-79.20327605	-1.97092726	-31.719732
134.01	0.22437631	65.44577485	-79.17072591	-1.99045654	-32.15093765
134.02	0.22433194	65.5018304	-79.13617414	-2.00818463	-32.61654702
134.03	0.2242866	65.5527625	-79.09972395	-2.0241871	-33.11585809
134.04	0.22424024	65.607321	-79.06140486	-2.03972562	-33.64042346
134.05	0.22419437	65.67391054	-79.02127509	-2.05613498	-34.18205254
134.06	0.22414808	65.76005805	-78.97974671	-2.07421403	-34.733146
134.07	0.22410489	65.86959672	-78.93696709	-2.09448233	-35.28928378
134.08	0.22406245	66.00508958	-78.89319016	-2.11664476	-35.84679019
134.09	0.22402325	66.16652915	-78.84843146	-2.14030173	-36.404173
134.1	0.22398617	66.35332312	-78.80334311	-2.16428089	-36.96023662
134.11	0.2239499	66.56460493	-78.75894679	-2.18709125	-37.51395038
134.12	0.22391523	66.80212966	-78.71683897	-2.2072852	-38.06137477
134.13	0.22387912	67.06630557	-78.678208	-2.2233718	-38.60047488
134.14	0.22384596	67.35966849	-78.64261961	-2.23554886	-39.12750451
134.15	0.2238092	67.68291074	-78.6122021	-2.24192953	-39.64095717
134.16	0.22377935	68.03392906	-78.58212402	-2.24540874	-40.1438617
134.17	0.2237369	68.41459787	-78.55727801	-2.24221473	-40.63417438
134.18	0.2236885	68.8199921	-78.53557894	-2.23345428	-41.11797684
134.19	0.22364881	69.24462655	-78.50999454	-2.22340127	-41.60288598
134.2	0.22361485	69.71650709	-78.48196317	-2.2140622	-42.0594565
134.21	0.22357891	70.14632026	-78.45128702	-2.19597825	-42.58438487
134.22	0.22355796	70.64772395	-78.41844375	-2.18165692	-43.05585624
134.23	0.22354654	71.16245216	-78.38265689	-2.16482558	-43.53671428
134.24	0.2235562	71.69644302	-78.34371493	-2.14644032	-44.01957234
134.25	0.22358169	72.32136137	-78.30504222	-2.13109436	-44.4264402
134.26	0.22363469	72.98647971	-78.26469672	-2.11448907	-44.80988255
134.27	0.22371215	73.7078087	-78.22586683	-2.09547854	-45.14982567
134.28	0.22379895	74.49535183	-78.18948328	-2.0726744	-45.43480517
134.29	0.22389695	75.34248005	-78.15779061	-2.04306509	-45.66732269
134.3	0.22399719	76.25232045	-78.12963475	-2.00567102	-45.8420456
134.31	0.22406929	77.21146141	-78.11175874	-1.95235108	-45.96936847
134.32	0.22413134	78.22029458	-78.09823493	-1.88608247	-46.04580852
134.33	0.22417536	79.27990001	-78.09171865	-1.80435191	-46.06670601
134.34	0.22420447	80.38963178	-78.09193215	-1.70726875	-46.03008293
134.35	0.22421235	81.55804722	-78.10276604	-1.59311426	-45.92255544
134.36	0.22420445	82.78261453	-78.12265103	-1.46218563	-45.74242623
134.37	0.22417076	84.06882796	-78.15270018	-1.31245153	-45.47665124
134.38	0.22410309	85.41309771	-78.19209109	-1.14172553	-45.12169298
134.39	0.22399167	86.80649794	-78.24087802	-0.94693232	-44.68019504
134.4	0.22383442	88.23756966	-78.29787345	-0.72612055	-44.15860214
134.41	0.22363097	89.69214343	-78.36299669	-0.47684211	-43.5671604
134.42	0.22339394	91.15250843	-78.43362383	-0.19872915	-42.92118421
134.43	0.22313374	92.59387423	-78.51172296	0.11060272	-42.24582298
134.44	0.22287563	94.00465709	-78.59334264	0.44855136	-41.54963891
134.45	0.22264637	95.36147378	-78.67925289	0.81466916	-40.85600763
134.46	0.22247335	96.64609168	-78.76804659	1.20633381	-40.18108768
134.47	0.22238215	97.84130171	-78.8592256	1.62059254	-39.53923395
134.48	0.22238986	98.93301685	-78.95208004	2.05400298	-38.94006283
134.49	0.22249878	99.9069711	-79.04766982	2.50429806	-38.3928744
134.5	0.22270047	100.7453555	-79.14830878	2.97061969	-37.91183271
134.51	0.22296697	101.4331117	-79.25820174	3.45368159	-37.50730836
134.52	0.22327434	101.9488989	-79.38284571	3.95531372	-37.20001263
134.53	0.22360427	102.2843661	-79.52400267	4.47427213	-36.99632497
134.54	0.22395414	102.4338614	-79.68036362	5.00762933	-36.90119764
134.55	0.22432649	102.4008129	-79.8470781	5.55086584	-36.90990827
134.56	0.22472528	102.1966154	-80.01726263	6.09920676	-37.00847219
134.57	0.22515552	101.8416736	-80.18155214	6.64677074	-37.17445002
134.58	0.22561442	101.3590645	-80.33136034	7.18929219	-37.3831447
134.59	0.22609877	100.7706216	-80.45669392	7.72261061	-37.6121163
134.6	0.22660014	100.0925966	-80.54581964	8.2427072	-37.84475774
134.61	0.2271073	99.33585728	-80.5870914	8.7464076	-38.07131977
134.62	0.22760953	98.51393607	-80.57031284	9.23010407	-38.27803771
134.63	0.22809743	97.63896947	-80.48550293	9.68913962	-38.45516025
134.64	0.22856119	96.71536428	-80.32590771	10.12060354	-38.60416276
134.65	0.22899769	95.7545786	-80.08675597	10.52014238	-38.71875173
134.66	0.22940075	94.77051353	-79.76546109	10.88389052	-38.79160035
134.67	0.22977223	93.76658737	-79.36280372	11.20984663	-38.82675474
134.68	0.23011038	92.75006485	-78.88077998	11.49643142	-38.82367919
134.69	0.23041408	91.72725614	-78.3222163	11.74281666	-38.78142968
134.7	0.23068701	90.69582381	-77.69209212	11.95018575	-38.70550918
134.71	0.23093079	89.65929728	-76.99475599	12.11932944	-38.59334721
134.72	0.23115104	88.61673003	-76.23573396	12.25225331	-38.44596153
134.73	0.23135216	87.5665879	-75.42064207	12.35133752	-38.26479857
